HIERARCHY
ROOT reference
{
  OFFSET 0 0 0
  CHANNELS 6 Xposition Yposition Zposition Zrotation Xrotation Yrotation
  JOINT Hips
  {
    OFFSET 1.17329 83.5799 118.45
    CHANNELS 6 Xposition Yposition Zposition Zrotation Xrotation Yrotation
    JOINT Spine
    {
      OFFSET 0 7.76127 0
      CHANNELS 6 Xposition Yposition Zposition Zrotation Xrotation Yrotation
      JOINT Spine1
      {
        OFFSET 0 24.7858 0
        CHANNELS 6 Xposition Yposition Zposition Zrotation Xrotation Yrotation
        JOINT Neck
        {
          OFFSET 0 24.684 2.244
          CHANNELS 6 Xposition Yposition Zposition Zrotation Xrotation Yrotation
          JOINT Head
          {
            OFFSET 0 13.2509 -1.89299
            CHANNELS 6 Xposition Yposition Zposition Zrotation Xrotation Yrotation
            End Site
            {
              OFFSET 0 23.6624 0
            }
          }
        }
        JOINT LeftShoulder
        {
          OFFSET 3.79413 23.4442 -0.177979
          CHANNELS 6 Xposition Yposition Zposition Zrotation Xrotation Yrotation
          JOINT LeftArm
          {
            OFFSET 9.21107 0 0
            CHANNELS 6 Xposition Yposition Zposition Zrotation Xrotation Yrotation
            JOINT LeftForeArm
            {
              OFFSET 34.3528 0 0
              CHANNELS 6 Xposition Yposition Zposition Zrotation Xrotation Yrotation
              JOINT LeftHand
              {
                OFFSET 25.4606 0 0
                CHANNELS 6 Xposition Yposition Zposition Zrotation Xrotation Yrotation
                End Site
                {
                  OFFSET 14.1974 0 0
                }
              }
            }
          }
        }
        JOINT RightShoulder
        {
          OFFSET -3.76739 23.4442 -0.177979
          CHANNELS 6 Xposition Yposition Zposition Zrotation Xrotation Yrotation
          JOINT RightArm
          {
            OFFSET -9.21107 0 0
            CHANNELS 6 Xposition Yposition Zposition Zrotation Xrotation Yrotation
            JOINT RightForeArm
            {
              OFFSET -34.3528 0 0
              CHANNELS 6 Xposition Yposition Zposition Zrotation Xrotation Yrotation
              JOINT RightHand
              {
                OFFSET -25.4606 0 0
                CHANNELS 6 Xposition Yposition Zposition Zrotation Xrotation Yrotation
                End Site
                {
                  OFFSET -14.1974 0 0
                }
              }
            }
          }
        }
      }
    }
    JOINT LeftUpLeg
    {
      OFFSET 9.46496 0 0
      CHANNELS 6 Xposition Yposition Zposition Zrotation Xrotation Yrotation
      JOINT LeftLeg
      {
        OFFSET 0 -36.0737 0
        CHANNELS 6 Xposition Yposition Zposition Zrotation Xrotation Yrotation
        JOINT LeftFoot
        {
          OFFSET 0 -40.8088 0
          CHANNELS 6 Xposition Yposition Zposition Zrotation Xrotation Yrotation
          JOINT LeftToeBase
          {
            OFFSET 0 -6.15222 14.1974
            CHANNELS 6 Xposition Yposition Zposition Zrotation Xrotation Yrotation
            End Site
            {
              OFFSET 0 0 3.78598
            }
          }
        }
      }
    }
    JOINT RightUpLeg
    {
      OFFSET -9.46496 0 0
      CHANNELS 6 Xposition Yposition Zposition Zrotation Xrotation Yrotation
      JOINT RightLeg
      {
        OFFSET 0 -36.0737 0
        CHANNELS 6 Xposition Yposition Zposition Zrotation Xrotation Yrotation
        JOINT RightFoot
        {
          OFFSET 0 -40.8088 0
          CHANNELS 6 Xposition Yposition Zposition Zrotation Xrotation Yrotation
          JOINT RightToeBase
          {
            OFFSET 0 -6.15222 14.1974
            CHANNELS 6 Xposition Yposition Zposition Zrotation Xrotation Yrotation
            End Site
            {
              OFFSET 0 0 3.78598
            }
          }
        }
      }
    }
  }
}
MOTION
Frames:	6
Frame Time:	0.004
0 0 0 0 0 -0 -21.0616 79.8664 -219.644 -1.84994 2.0491 -15.9183 -1.42109e-014 7.76127 0 3.65375 7.82748 13.3118 3.55271e-015 24.7858 0 -2.00467 -16.0879 13.2794 3.55271e-015 24.684 2.244 1.62563 21.0939 -0.062602 0 13.2509 -1.89299 -1.44107 -2.60017 -0.225961 3.79413 23.4442 -0.177979 11.4837 0.581934 -4.98383 9.21107 2.84217e-014 0 -9.45559 -4.58016 0.669189 34.3528 0 -2.84217e-014 -0.068505 -0.360873 -2.01433 25.4606 2.84217e-014 -2.84217e-014 8.05219 -0.457469 -1.35453 -3.76739 23.4442 -0.177979 -12.5139 0.0465257 -1.46181 -9.21107 -2.84217e-014 -2.84217e-014 13.7866 -5.99751 -5.15048 -34.3528 -2.84217e-014 -2.84217e-014 -3.31086 0.411767 1.33864 -25.4606 -2.84217e-014 0 -6.1656 0.155038 5.47859 9.46496 1.42109e-014 2.84217e-014 -0.148766 -1.70008 21.878 0 -36.0737 2.84217e-014 1.34325 4.0222 -5.50371 3.55271e-015 -40.8088 0 -1.83927 -1.36615 14.9744 7.10543e-015 -6.15222 14.1974 -7.95139e-016 0 -0 -9.46496 0 0 3.01268 -5.97392 24.0509 3.55271e-015 -36.0737 2.84217e-014 3.34394 4.94745 -3.05203 -3.55271e-015 -40.8088 0 4.22265 1.92517 -24.5715 0 -6.15222 14.1974 1.19271e-015 -3.97569e-016 -0 
0 0 0 0 0 -0 -21.0616 79.8664 -219.644 -1.85448 2.0332 -15.9181 0 7.76127 2.84217e-014 3.65123 7.83803 13.3121 0 24.7858 0 -2.00924 -16.0693 13.2782 0 24.684 2.244 1.62915 21.0855 -0.072415 -3.55271e-015 13.2509 -1.89299 -1.39343 -2.59343 -0.216656 3.79413 23.4442 -0.177979 11.5018 0.595173 -4.9952 9.21107 2.84217e-014 2.84217e-014 -9.45693 -4.60143 0.687909 34.3528 -2.84217e-014 0 -0.077083 -0.313302 -2.01431 25.4606 0 -2.84217e-014 7.96439 -0.408239 -1.34225 -3.76739 23.4442 -0.177979 -12.5238 0.0465254 -1.47262 -9.21107 -2.84217e-014 0 13.7952 -6.01281 -5.15062 -34.3528 0 0 -3.31088 0.420875 1.34346 -25.4606 0 0 -6.14455 0.165611 5.47859 9.46496 0 2.84217e-014 -0.157995 -1.67711 21.8777 -1.77636e-015 -36.0737 0 1.3501 4.00168 -5.43251 0 -40.8088 0 -1.80511 -1.34544 14.909 0 -6.15222 14.1974 9.93923e-017 0 -3.18055e-015 -9.46496 1.42109e-014 2.84217e-014 3.00395 -5.9625 24.0213 -3.55271e-015 -36.0737 0 3.34487 4.96021 -3.05497 3.55271e-015 -40.8088 0 4.16501 1.91524 -24.5133 1.42109e-014 -6.15222 14.1974 -3.97569e-016 7.95139e-016 -3.18055e-015 
0 0 0 0 0 -0 -21.0616 79.8664 -219.644 -1.84885 2.05292 -15.9183 1.42109e-014 7.76127 -2.84217e-014 3.65554 7.82 13.3116 0 24.7858 0 -2.00001 -16.0639 13.2792 3.55271e-015 24.684 2.244 1.63442 21.0771 -0.072518 0 13.2509 -1.89299 -1.3944 -2.57999 -0.226565 3.79413 23.4442 -0.177979 11.4962 0.591612 -4.97022 9.21107 -2.84217e-014 2.84217e-014 -9.3429 -5.38339 0.65218 34.3528 0 0 -0.329929 0.111712 -1.95835 25.4606 0 0 8.02847 0.007249 -1.41638 -3.76739 23.4442 -0.177979 -12.5375 0.046525 -1.49321 -9.21107 0 2.84217e-014 13.7929 -6.02045 -5.14043 -34.3528 0 2.84217e-014 -3.29731 0.439182 1.35095 -25.4606 -2.84217e-014 2.84217e-014 -6.1369 0.184391 5.47714 9.46496 0 0 -0.148991 -1.69952 21.878 1.77636e-015 -36.0737 0 1.34595 4.00329 -5.42855 0 -40.8088 0 -1.80166 -1.34568 14.9079 0 -6.15222 14.1974 -5.96354e-016 3.97569e-016 -0 -9.46496 0 0 3.0126 -5.98144 24.0235 0 -36.0737 2.84217e-014 3.34579 4.9578 -3.06708 -3.55271e-015 -40.8088 0 4.20373 1.92237 -24.5331 0 -6.15222 14.1974 -1.59028e-015 7.95139e-016 -3.18055e-015 
0 0 0 0 0 -0 -21.0616 79.8664 -219.644 -1.84932 2.0497 -15.9301 0 7.76127 0 3.66378 7.82084 13.3185 0 24.7858 2.84217e-014 -2.01603 -16.0588 13.2813 0 24.684 2.244 1.66134 21.0678 -0.073561 3.55271e-015 13.2509 -1.89299 -1.398 -2.55644 -0.228304 3.79413 23.4442 -0.177979 11.5291 0.591587 -4.98987 9.21107 -2.84217e-014 2.84217e-014 -9.36207 -5.38844 0.678925 34.3528 2.84217e-014 0 -0.33771 0.15545 -1.95672 25.4606 0 0 7.98647 0.050431 -1.42389 -3.76739 23.4442 -0.177979 -12.5248 0.051025 -1.50443 -9.21107 2.84217e-014 0 13.7933 -5.99735 -5.13572 -34.3528 0 -2.84217e-014 -3.31133 0.435874 1.35669 -25.4606 2.84217e-014 2.84217e-014 -6.05434 0.18473 5.48958 9.46496 1.42109e-014 2.84217e-014 -0.151697 -1.69279 21.8779 -1.77636e-015 -36.0737 0 1.33959 4.01697 -5.50973 -1.77636e-015 -40.8088 -2.84217e-014 -1.82414 -1.36877 15.0055 0 -6.15222 14.1974 2.98177e-016 -7.95139e-016 -0 -9.46496 1.42109e-014 0 3.00934 -5.97725 24.0122 7.10543e-015 -36.0737 0 3.34334 4.95973 -3.03764 -3.55271e-015 -40.8088 2.84217e-014 4.17887 1.92109 -24.5392 0 -6.15222 14.1974 1.59028e-015 3.97569e-016 -0 
0 0 0 0 0 -0 -21.0616 79.8664 -219.644 -1.8481 2.05346 -15.9337 0 7.76127 0 3.66937 7.82296 13.3218 0 24.7858 -2.84217e-014 -2.04176 -16.0554 13.2836 -3.55271e-015 24.684 2.244 1.69736 21.04 -0.074709 0 13.2509 -1.89299 -1.39985 -2.52972 -0.240994 3.79413 23.4442 -0.177979 11.5775 0.607316 -4.94145 9.21107 0 0 -9.4019 -5.29882 0.623783 34.3528 0 0 -0.313987 0.121963 -1.95103 25.4606 2.84217e-014 0 7.93974 0.019322 -1.40114 -3.76739 23.4442 -0.177979 -12.5386 0.064475 -1.52555 -9.21107 -2.84217e-014 0 13.8176 -5.97539 -5.12686 -34.3528 0 0 -3.30128 0.426411 1.37524 -25.4606 -2.84217e-014 -2.84217e-014 -6.08281 0.175558 5.46599 9.46496 -1.42109e-014 0 -0.159673 -1.70025 21.878 0 -36.0737 0 1.34939 4.0037 -5.35946 0 -40.8088 0 -1.81809 -1.34416 14.8541 0 -6.15222 14.1974 -1.98785e-016 -7.95139e-016 -0 -9.46496 0 0 3.01198 -5.98363 24.0108 -3.55271e-015 -36.0737 0 3.33684 4.96019 -3.03674 0 -40.8088 0 4.19246 1.92309 -24.5236 0 -6.15222 14.1974 -3.97569e-016 0 3.18055e-015 
0 0 0 0 0 -0 -21.0616 79.8664 -219.644 -1.84401 2.06793 -15.9327 0 7.76127 0 3.67391 7.80673 13.3264 -7.10543e-015 24.7858 2.84217e-014 -2.0402 -16.0519 13.2866 3.55271e-015 24.684 2.244 1.70461 21.0582 -0.085204 -3.55271e-015 13.2509 -1.89299 -1.38709 -2.55528 -0.240711 3.79413 23.4442 -0.177979 11.587 0.621809 -4.94677 9.21107 0 2.84217e-014 -9.39977 -5.33639 0.632663 34.3528 -2.84217e-014 0 -0.317867 0.1599 -1.94394 25.4606 0 0 7.87729 0.057585 -1.40981 -3.76739 23.4442 -0.177979 -12.5414 0.062435 -1.53411 -9.21107 2.84217e-014 -2.84217e-014 13.8271 -5.92618 -5.13037 -34.3528 -2.84217e-014 0 -3.31351 0.406974 1.39409 -25.4606 0 -2.84217e-014 -6.04031 0.159692 5.44931 9.46496 0 -2.84217e-014 -0.1562 -1.71172 21.8781 0 -36.0737 0 1.34654 4.00537 -5.43721 -1.77636e-015 -40.8088 -2.84217e-014 -1.85837 -1.35253 14.9314 7.10543e-015 -6.15222 14.1974 -1.98785e-016 -3.97569e-016 -3.18055e-015 -9.46496 0 0 3.01734 -5.99193 24.0102 7.10543e-015 -36.0737 0 3.33202 4.94958 -3.07011 0 -40.8088 0 4.23263 1.92568 -24.5059 0 -6.15222 14.1974 -1.19271e-015 7.95139e-016 -9.54166e-015 
